<?xml version="1.0" standalone="no"?>
<!DOCTYPE svg PUBLIC "-//W3C//DTD SVG 20010904//EN"
 "http://www.w3.org/TR/2001/REC-SVG-20010904/DTD/svg10.dtd">
<svg version="1.0" xmlns="http://www.w3.org/2000/svg"
 width="512.000000pt" height="512.000000pt" viewBox="0 0 512.000000 512.000000"
 preserveAspectRatio="xMidYMid meet">

<g transform="translate(0.000000,512.000000) scale(0.100000,-0.100000)"
fill="#000000" stroke="none">
<path d="M1317 5110 c-111 -28 -209 -110 -260 -218 -28 -60 -32 -77 -32 -157
1 -127 25 -185 121 -285 41 -42 74 -80 74 -84 0 -3 -116 -6 -258 -6 -284 0
-330 -6 -432 -61 -113 -60 -216 -195 -244 -319 -22 -97 -24 -786 -2 -829 15
-28 53 -51 87 -51 28 0 75 26 85 47 5 10 11 194 14 408 l5 390 27 51 c15 28
48 70 73 92 80 70 92 72 499 72 l361 0 624 -624 623 -623 2 -119 c2 -99 7
-133 29 -201 48 -144 157 -280 307 -383 213 -145 481 -202 847 -179 167 11
202 21 222 66 22 49 16 68 -57 164 -18 23 -40 68 -49 98 -16 56 -16 63 3 411
11 215 -40 356 -180 495 -136 135 -289 198 -476 194 l-95 -2 -350 352 -350
351 936 0 c1047 0 988 4 1074 -72 25 -22 58 -64 73 -92 l27 -51 3 -1072 2
-1073 -2090 0 -2090 0 0 260 c0 283 -4 305 -55 328 -33 15 -57 15 -90 0 -55
-25 -55 -27 -55 -536 0 -276 4 -492 10 -523 38 -199 209 -366 410 -398 41 -7
310 -11 718 -11 l652 0 0 -158 0 -158 -72 -12 c-104 -18 -188 -62 -267 -141
-73 -71 -110 -137 -136 -236 -28 -108 -16 -174 36 -201 42 -21 1836 -21 1878
0 53 28 64 98 33 217 -48 182 -210 328 -400 361 l-72 12 0 158 0 158 653 0
c391 0 678 4 717 10 193 30 354 180 405 376 22 87 22 2576 0 2672 -41 173
-177 314 -354 366 -49 14 -172 16 -1100 16 l-1045 0 -346 344 c-305 303 -353
347 -411 375 -54 26 -82 33 -145 37 -44 2 -96 -1 -117 -6z m168 -209 c27 -13
208 -188 553 -533 l512 -513 -133 -133 -132 -132 -517 518 c-357 357 -522 528
-533 554 -38 93 5 195 100 239 51 24 99 24 150 0z m1365 -1346 l155 -155 -133
-132 -132 -133 -157 157 -158 158 130 130 c71 71 132 130 135 130 3 0 75 -70
160 -155z m599 -306 c62 -14 147 -57 194 -99 37 -33 39 -38 27 -60 -39 -74
-125 -146 -208 -175 -24 -8 -82 -19 -130 -25 -48 -6 -118 -22 -157 -35 -81
-29 -191 -101 -240 -157 l-34 -40 -8 28 c-4 16 -8 72 -7 124 1 113 22 178 88
267 103 141 301 212 475 172z m332 -572 c-6 -54 -11 -142 -11 -195 0 -86 6
-126 36 -228 5 -18 0 -22 -34 -28 -58 -9 -271 11 -369 34 -111 26 -222 78
-310 147 -40 30 -73 58 -73 63 0 14 57 86 100 124 59 53 134 83 237 96 48 5
119 20 157 32 74 23 191 95 241 148 l30 31 3 -63 c2 -35 -2 -107 -7 -161z
m869 -1185 c0 -186 -44 -273 -167 -334 l-68 -33 -1855 0 -1855 0 -56 26 c-66
31 -120 84 -151 148 -19 39 -23 66 -26 174 l-4 127 2091 0 2091 0 0 -108z
m-1790 -732 l0 -160 -300 0 -300 0 0 160 0 160 300 0 300 0 0 -160z m290 -379
c28 -11 67 -32 87 -47 32 -24 93 -107 93 -126 0 -4 -346 -8 -770 -8 -423 0
-770 4 -770 8 0 20 61 102 95 128 83 63 85 63 677 64 507 0 541 -1 588 -19z"/>
<path d="M2507 1449 c-51 -30 -58 -116 -11 -160 40 -37 98 -33 136 10 26 29
30 39 25 75 -7 53 -44 86 -95 86 -20 0 -45 -5 -55 -11z"/>
<path d="M321 2836 c-87 -48 -50 -186 49 -186 51 0 100 49 100 99 0 75 -83
124 -149 87z"/>
</g>
</svg>
