<?xml version="1.0" standalone="no"?>
<!DOCTYPE svg PUBLIC "-//W3C//DTD SVG 20010904//EN"
 "http://www.w3.org/TR/2001/REC-SVG-20010904/DTD/svg10.dtd">
<svg version="1.0" xmlns="http://www.w3.org/2000/svg"
 width="512.000000pt" height="512.000000pt" viewBox="0 0 512.000000 512.000000"
 preserveAspectRatio="xMidYMid meet">

<g transform="translate(0.000000,512.000000) scale(0.100000,-0.100000)"
fill="#000000" stroke="none">
<path d="M2375 5054 c-16 -2 -73 -9 -125 -15 -435 -49 -869 -231 -1240 -518
-110 -85 -327 -302 -412 -412 -278 -358 -445 -750 -515 -1206 -23 -150 -23
-536 0 -686 112 -727 493 -1334 1087 -1732 330 -221 669 -348 1085 -407 135
-19 503 -16 650 5 373 55 731 192 1035 395 617 413 996 1025 1102 1777 17 119
16 493 -1 615 -88 635 -394 1199 -866 1597 -357 302 -802 502 -1265 568 -108
16 -467 29 -535 19z m-342 -1198 l28 -23 -103 -32 c-226 -72 -451 -177 -625
-294 -57 -37 -103 -70 -103 -71 0 -2 56 21 125 51 448 192 947 284 1368 254
369 -28 703 -109 1044 -255 68 -30 123 -52 123 -50 0 1 -46 34 -102 71 -175
117 -412 227 -641 298 l-89 28 29 24 c25 21 34 23 98 17 257 -22 544 -122 773
-270 l92 -59 74 -150 c242 -490 389 -1045 413 -1555 l6 -135 -72 -70 c-242
-233 -538 -362 -901 -390 l-85 -6 -41 48 c-22 26 -71 86 -109 132 l-68 85 79
27 c168 56 320 143 437 249 95 86 87 94 -31 28 -307 -172 -605 -268 -927 -299
-177 -17 -538 -7 -690 20 -151 27 -279 62 -424 118 -112 43 -312 139 -387 185
-69 43 -67 42 -55 20 6 -11 34 -41 63 -67 121 -109 276 -199 437 -253 l84 -28
-81 -100 c-45 -54 -94 -114 -110 -133 l-29 -34 -124 12 c-347 35 -626 161
-861 387 l-71 69 6 135 c24 510 171 1065 413 1555 l74 150 92 59 c181 117 427
215 628 250 171 31 208 31 243 2z"/>
<path d="M1855 2707 c-95 -32 -166 -92 -212 -179 -25 -48 -28 -63 -28 -158 0
-127 19 -176 101 -257 127 -123 330 -127 463 -7 185 166 139 473 -88 580 -65
31 -176 41 -236 21z"/>
<path d="M3094 2711 c-176 -45 -296 -227 -265 -398 33 -177 168 -293 341 -293
97 0 171 29 235 94 81 81 100 130 100 256 0 94 -3 110 -27 155 -59 114 -167
185 -287 191 -36 2 -80 0 -97 -5z"/>
</g>
</svg>
