<?xml version="1.0" standalone="no"?>
<!DOCTYPE svg PUBLIC "-//W3C//DTD SVG 20010904//EN"
 "http://www.w3.org/TR/2001/REC-SVG-20010904/DTD/svg10.dtd">
<svg version="1.0" xmlns="http://www.w3.org/2000/svg"
 width="512.000000pt" height="512.000000pt" viewBox="0 0 512.000000 512.000000"
 preserveAspectRatio="xMidYMid meet">

<g transform="translate(0.000000,512.000000) scale(0.100000,-0.100000)"
fill="#000000" stroke="none">
<path d="M1849 4830 c-62 -8 -155 -47 -207 -86 -50 -38 -108 -117 -134 -181
l-23 -58 -5 -984 -5 -984 -400 -234 c-220 -129 -410 -244 -423 -256 l-23 -21
3 -496 3 -495 30 -58 c54 -108 83 -126 677 -434 321 -167 555 -283 571 -283
15 0 63 18 107 40 l80 40 883 0 c556 0 904 4 938 10 173 33 312 181 340 362 6
40 9 749 7 1923 l-3 1860 -23 56 c-34 86 -94 162 -163 208 -121 81 -41 75
-1169 77 -553 1 -1030 -2 -1061 -6z m465 -320 c33 -82 68 -158 79 -167 18 -17
56 -18 508 -18 476 0 489 0 509 20 11 11 46 85 78 165 l58 145 175 3 c199 3
232 -4 294 -66 21 -20 47 -57 59 -82 l21 -45 0 -1880 0 -1880 -31 -55 c-34
-60 -100 -113 -164 -130 -24 -7 -291 -9 -756 -8 l-719 3 303 159 c275 145 308
165 357 218 32 34 63 80 76 115 23 57 24 64 27 519 3 382 1 467 -11 495 -13
31 -69 64 -618 370 -678 378 -661 369 -686 369 -10 0 -63 -27 -118 -59 l-100
-59 -3 901 c-2 994 -5 953 60 1031 17 21 54 49 82 62 48 23 62 24 256 24 l205
0 59 -150z m1046 143 c0 -3 -14 -42 -31 -85 l-32 -78 -395 2 -396 3 -32 75
c-18 41 -33 78 -33 83 -1 4 206 7 459 7 253 0 460 -3 460 -7z m-908 -2397
c484 -271 563 -318 566 -339 3 -27 -11 -37 -174 -121 l-91 -46 -424 236 c-233
130 -489 273 -569 317 -80 44 -151 85 -157 91 -10 9 19 31 125 93 75 45 142
82 149 83 7 0 266 -141 575 -314z m-467 -273 c303 -169 558 -312 569 -319 17
-11 13 -15 -44 -44 l-61 -31 -372 207 c-629 351 -762 426 -770 434 -11 10 94
70 113 64 8 -3 263 -143 565 -311z m-287 -170 c305 -171 554 -314 554 -319 1
-5 -82 -53 -184 -106 l-185 -98 -541 270 -542 269 0 58 0 58 158 92 c86 51
164 91 172 89 8 -2 264 -143 568 -313z m1320 -420 c-4 -326 -6 -340 -65 -395
-22 -21 -615 -341 -915 -494 l-48 -24 0 337 0 338 191 100 c105 55 195 102
200 103 5 2 9 -63 9 -148 0 -147 1 -152 25 -175 15 -16 35 -25 55 -25 34 0
325 146 353 178 14 15 17 49 19 217 l3 199 80 43 c44 23 84 43 88 43 5 0 7
-134 5 -297z m-1198 -583 c0 -176 -2 -320 -4 -320 -14 0 -935 487 -954 504
-13 11 -33 38 -43 58 -17 34 -19 62 -19 313 l0 275 510 -255 510 -255 0 -320z
m850 590 l0 -110 -50 -25 c-27 -14 -52 -25 -55 -25 -3 0 -5 49 -5 108 l0 108
53 26 c28 15 53 27 55 27 1 1 2 -48 2 -109z"/>
<path d="M2465 4028 c-11 -5 -77 -67 -147 -136 l-128 -126 -42 41 c-55 52 -82
66 -118 58 -36 -8 -58 -33 -66 -73 -6 -30 0 -38 92 -132 91 -93 100 -100 137
-100 37 0 47 8 189 148 220 215 237 244 179 303 -31 30 -62 36 -96 17z"/>
<path d="M2772 3973 c-17 -6 -42 -57 -42 -83 0 -12 13 -35 29 -51 l29 -29 227
0 227 0 29 29 c16 16 29 39 29 51 0 29 -26 76 -45 84 -20 7 -464 7 -483 -1z"/>
<path d="M2780 3687 c-54 -27 -63 -94 -20 -137 19 -19 35 -20 395 -20 l376 0
24 25 c41 40 33 105 -16 130 -38 20 -720 22 -759 2z"/>
<path d="M2329 3133 l-138 -136 -55 51 c-63 60 -98 67 -142 28 -21 -18 -28
-32 -28 -61 0 -33 9 -45 96 -131 136 -134 118 -139 345 89 203 203 209 213
154 268 -21 20 -39 29 -62 29 -28 0 -50 -17 -170 -137z"/>
<path d="M2783 3175 c-57 -24 -71 -88 -28 -130 l24 -25 236 0 236 0 24 25 c44
43 29 106 -30 131 -48 20 -416 19 -462 -1z"/>
<path d="M2769 2887 c-46 -35 -50 -88 -9 -128 l29 -30 376 3 377 3 19 24 c27
33 25 86 -6 116 l-24 25 -373 0 c-277 -1 -377 -4 -389 -13z"/>
</g>
</svg>
