<?xml version="1.0" standalone="no"?>
<!DOCTYPE svg PUBLIC "-//W3C//DTD SVG 20010904//EN"
 "http://www.w3.org/TR/2001/REC-SVG-20010904/DTD/svg10.dtd">
<svg version="1.0" xmlns="http://www.w3.org/2000/svg"
 width="512.000000pt" height="512.000000pt" viewBox="0 0 512.000000 512.000000"
 preserveAspectRatio="xMidYMid meet">

<g transform="translate(0.000000,512.000000) scale(0.100000,-0.100000)"
fill="#000000" stroke="none">
<path d="M3830 4444 c-14 -3 -47 -14 -75 -24 -27 -11 -700 -256 -1494 -545
-909 -330 -1456 -534 -1477 -550 -52 -40 -86 -106 -91 -178 -4 -58 9 -113 52
-219 6 -16 -1 -18 -72 -18 -67 0 -88 -4 -134 -27 -61 -32 -113 -93 -129 -153
-7 -26 -10 -340 -8 -957 l3 -918 22 -41 c28 -52 90 -108 139 -125 32 -12 312
-14 1654 -14 l1615 0 47 23 c53 26 102 77 127 131 14 32 16 129 16 966 l0 930
-29 53 c-16 28 -44 64 -63 78 -72 55 -78 55 -452 55 l-346 0 61 28 c33 16 64
36 67 45 22 56 -13 116 -66 116 -15 0 -144 -43 -288 -95 l-262 -95 -266 2
-265 3 1014 369 c558 203 1020 371 1026 373 7 2 90 -213 208 -539 216 -593
215 -591 155 -627 -16 -10 -89 -40 -162 -65 -74 -27 -140 -56 -149 -68 -40
-46 -6 -128 54 -128 38 0 308 99 350 129 44 31 84 91 99 146 11 41 5 134 -10
164 -5 9 -138 372 -295 806 -158 435 -293 804 -301 821 -44 100 -168 167 -275
148z m105 -185 c19 -17 62 -116 54 -123 -5 -4 -3069 -1118 -3089 -1123 -11 -3
-21 10 -33 44 -23 64 -22 97 6 127 30 34 2979 1109 3017 1100 14 -3 34 -14 45
-25z m146 -363 c16 -43 27 -81 25 -83 -3 -3 -553 -206 -1223 -451 l-1218 -446
-280 -3 c-188 -1 -273 1 -260 7 50 25 2902 1059 2914 1057 7 -1 27 -38 42 -81z
m-246 -1170 c16 -16 25 -40 30 -77 3 -30 5 -438 3 -906 l-3 -853 -28 -27 -27
-28 -1573 -3 c-1111 -2 -1583 0 -1609 8 -72 21 -68 -33 -68 960 l0 892 29 29
29 29 1597 0 1596 0 24 -24z"/>
<path d="M795 2559 c-44 -25 -45 -29 -45 -334 l0 -292 23 -21 c23 -22 29 -22
315 -22 277 0 293 1 312 20 11 11 22 30 25 42 3 13 5 146 3 295 -3 268 -3 273
-26 295 -22 23 -26 23 -305 25 -193 2 -288 -1 -302 -8z m473 -331 l2 -178
-180 0 -180 0 0 180 0 180 178 -2 177 -3 3 -177z"/>
<path d="M776 1679 c-20 -16 -26 -29 -26 -59 0 -30 6 -43 26 -59 26 -20 39
-21 310 -21 282 0 283 0 310 23 20 17 27 33 27 57 0 24 -7 40 -27 57 -27 23
-28 23 -310 23 -271 0 -284 -1 -310 -21z"/>
<path d="M3227 1680 c-55 -20 -60 -20 -114 -4 -72 21 -180 15 -245 -14 -66
-29 -141 -102 -169 -165 -18 -41 -23 -70 -23 -137 0 -67 5 -96 23 -137 28 -63
102 -135 168 -165 67 -29 174 -35 247 -14 55 16 60 16 104 -1 74 -29 182 -24
259 11 73 33 144 103 176 174 34 73 31 198 -6 273 -75 154 -264 234 -420 179z
m178 -159 c177 -80 138 -312 -58 -339 -37 -5 -40 -3 -32 14 46 113 46 215 0
327 -6 14 -2 17 21 17 16 0 47 -9 69 -19z m-305 -13 c67 -35 85 -66 85 -148 0
-82 -18 -113 -85 -147 -92 -48 -205 -17 -247 67 -13 24 -23 60 -23 80 0 20 10
56 23 80 27 55 88 90 157 90 28 0 63 -9 90 -22z"/>
<path d="M772 1327 c-42 -45 -20 -117 40 -132 13 -3 301 -4 641 -3 l619 3 24
28 c29 34 31 66 3 101 l-20 26 -643 0 -643 0 -21 -23z"/>
<path d="M3730 3305 c-168 -62 -261 -101 -272 -116 -22 -26 -23 -67 -3 -96 31
-44 57 -39 321 57 137 49 259 95 270 101 23 12 44 49 44 75 0 24 -56 74 -82
73 -13 0 -138 -43 -278 -94z"/>
</g>
</svg>
