<?xml version="1.0" standalone="no"?>
<!DOCTYPE svg PUBLIC "-//W3C//DTD SVG 20010904//EN"
 "http://www.w3.org/TR/2001/REC-SVG-20010904/DTD/svg10.dtd">
<svg version="1.0" xmlns="http://www.w3.org/2000/svg"
 width="512.000000pt" height="512.000000pt" viewBox="0 0 512.000000 512.000000"
 preserveAspectRatio="xMidYMid meet">

<g transform="translate(0.000000,512.000000) scale(0.100000,-0.100000)"
fill="#000000" stroke="none">
<path d="M2453 4861 c-88 -30 -166 -106 -193 -187 l-12 -34 -764 0 -764 0 0
55 c0 46 -4 60 -25 80 -24 25 -26 25 -215 25 -257 0 -240 17 -240 -240 0 -257
-17 -240 240 -240 189 0 191 0 215 25 21 20 25 34 25 80 l0 55 518 0 517 0
-100 -48 c-575 -278 -999 -818 -1129 -1441 l-22 -105 -62 -25 c-125 -52 -202
-165 -202 -299 0 -77 14 -122 56 -184 57 -81 204 -147 297 -133 155 24 277
157 280 309 3 120 -52 224 -150 281 -63 36 -64 38 -23 197 173 685 709 1217
1400 1389 155 39 163 38 185 -11 23 -51 92 -115 153 -143 66 -30 188 -30 253
0 61 28 120 82 150 138 29 55 33 55 191 15 685 -173 1213 -705 1389 -1399 38
-150 38 -162 -7 -186 -57 -30 -114 -92 -142 -153 -74 -162 8 -358 178 -423
117 -44 255 -16 339 71 62 64 85 121 89 218 4 77 2 88 -27 147 -44 88 -108
139 -223 178 -11 4 -18 16 -18 31 0 48 -71 301 -116 416 -193 485 -541 866
-1007 1101 l-118 59 515 0 516 0 0 -55 c0 -46 4 -60 25 -80 24 -25 26 -25 215
-25 257 0 240 -17 240 240 0 257 17 240 -240 240 -189 0 -191 0 -215 -25 -21
-20 -25 -34 -25 -80 l0 -55 -767 0 -768 0 -19 48 c-11 27 -42 69 -72 99 -90
87 -206 114 -321 74z"/>
<path d="M2025 3059 c-247 -473 -451 -871 -453 -883 -2 -13 74 -209 172 -447
172 -416 175 -424 157 -444 -40 -43 -55 -88 -55 -160 0 -72 15 -117 55 -160
16 -18 18 -45 21 -291 l3 -271 30 -49 c19 -30 49 -60 79 -79 l49 -30 477 0
477 0 49 30 c30 19 60 49 79 79 l30 49 3 265 3 265 28 36 c36 45 51 91 51 150
0 49 -29 123 -61 157 -19 20 -18 23 156 448 96 235 175 435 175 446 0 13 -719
1402 -896 1730 -11 21 -13 -74 -14 -625 l0 -650 48 -19 c66 -28 145 -111 172
-183 59 -155 -17 -337 -169 -406 -65 -30 -188 -29 -253 0 -63 28 -134 96 -166
158 -23 43 -27 62 -27 135 0 70 5 94 25 135 32 66 103 136 162 160 l48 20 0
648 c0 356 -1 647 -2 647 -2 0 -205 -387 -453 -861z m1070 -1884 c16 -15 25
-36 25 -55 0 -19 -9 -40 -25 -55 l-24 -25 -511 0 -511 0 -24 25 c-16 15 -25
36 -25 55 0 19 9 40 25 55 l24 25 511 0 511 0 24 -25z"/>
<path d="M2495 2466 c-41 -18 -83 -69 -91 -111 -10 -56 4 -102 44 -144 110
-116 298 -15 268 144 -18 93 -131 150 -221 111z"/>
</g>
</svg>
